<svg xmlns="http://www.w3.org/2000/svg" width="110.4" height="36.8"><g data-name="Group 927"><g data-name="Group 926" fill="#fff"><g data-name="Group 923"><path data-name="Path 127" d="M88.446 15.65V27.6h6.063v-8.483a16.728 16.728 0 01.446-4.339z"/><path data-name="Path 128" d="M107.381 13.145l3.019-7.76-.679.142-6.206 1.327c-4.621.985-7.2 3.554-7.936 7.84z"/></g><path data-name="Path 129" d="M14.6 9.2l-3.658 11.824h-.108L6.728 9.2H0l7.687 18.1-.718 1.848c-.6 1.589-1.226 2.476-3.106 2.476a6.458 6.458 0 01-1.273-.154L.727 36.254c.245.075.523.145.821.209l.091.02a15.112 15.112 0 002.924.313c4.622 0 6.615-2.251 8.094-6.1L21.025 9.2z"/><path data-name="Path 130" d="M31.9 23.054a4.747 4.747 0 01-.606.039c-2.849 0-4.363-2.4-4.363-4.765s1.483-4.694 4.327-4.694a4.423 4.423 0 014.395 4.694 5.181 5.181 0 01-1.153 3.316l6.828-1.421a10.957 10.957 0 00.162-1.9c0-6.023-4.657-9.719-10.232-9.719-5.543 0-10.2 3.7-10.2 9.719s4.658 9.865 10.2 9.865a9.914 9.914 0 009.63-6.319z"/><g data-name="Group 924"><path data-name="Path 131" d="M50.312 18.379v-.753c0-2.105 1.108-3.954 3.251-3.954 2.029 0 2.651 1.6 2.727 3.463l6.1-1.268c-.112-3.581-1.926-7.182-6.718-7.182a6.276 6.276 0 00-5.507 3.068h-.073V9.2h-5.878v10.447z"/><path data-name="Path 132" d="M44.212 21.452V27.6h6.1v-6.95z"/><path data-name="Path 133" d="M56.3 19.863V27.6h6.095v-8.54z"/></g><g data-name="Group 925"><path data-name="Path 134" d="M79.345 16.829a5.02 5.02 0 01.244 1.534 4.534 4.534 0 01-4.436 4.729c-2.879 0-4.358-2.365-4.358-4.765 0-.126.005-.251.013-.376l-5.843.768c.159 4.979 3.349 9.4 8.751 9.4a7.15 7.15 0 006.017-2.919h.078v2.4h5.579V16.035z"/><path data-name="Path 135" d="M85.39 11.074V0h-6.058v11.158h-.078a7.259 7.259 0 00-5.615-2.476 8.476 8.476 0 00-8.26 6.554z"/></g></g></g></svg>
