<svg xmlns="http://www.w3.org/2000/svg" xml:space="preserve" style="enable-background:new -153-46 652 652" viewBox="-153 -46 652 652" fill="#FFF">
  <path d="M13.4 301.8v-53.7H24v53.7H13.4zm60.9 0v-31.3l-10.2 20.2H57l-10.5-20.2v31.3H36.4V248h10.1l14 29 13.9-29h10.4v53.7H74.3zm43.8-20.1h-10.2v20.2H97.3v-53.7H118c11.1 0 17.7 7.7 17.7 16.8.1 9-6.6 16.7-17.6 16.7zm-.5-24h-9.7v14.4h9.7c4.7 0 7.8-2.8 7.8-7.2-.1-4.3-3.1-7.2-7.8-7.2zm55.4 44.1-10.5-21.6h-7.7v21.6h-10.1v-53.7h20.8c10.9 0 17.4 7.5 17.4 16.5 0 7.5-4.6 12.2-9.8 14.1l12 23.2H173zm-8.1-44.1h-10v13.9h10c4.6 0 7.6-2.8 7.6-7 0-4.1-3-6.9-7.6-6.9zm61.4 38.7c-3.8 3.8-8.4 5.9-14.5 5.9s-10.8-2.1-14.5-5.9c-5.4-5.4-5.3-12.1-5.3-21.4 0-9.3-.1-16 5.3-21.4 3.8-3.8 8.4-5.9 14.5-5.9s10.7 2.1 14.5 5.9c5.4 5.4 5.4 12.1 5.4 21.4-.1 9.3 0 16-5.4 21.4zm-7.8-36.5c-.8-.9-1.9-1.7-3-2.2-1.2-.5-2.4-.7-3.7-.7-1.3 0-2.5.2-3.7.7-1.2.5-2.2 1.2-3.1 2.2-2 2.3-2.6 4.7-2.6 15.1 0 10.3.5 12.8 2.6 15.1.9.9 1.9 1.7 3.1 2.2 1.2.5 2.4.7 3.7.7 1.3 0 2.5-.2 3.7-.7 1.2-.5 2.2-1.2 3-2.2 2-2.3 2.6-4.7 2.6-15.1 0-10.3-.6-12.8-2.6-15.1zm46.2 41.9h-22.5v-53.7h21.7c10.5 0 16.6 5.9 16.6 15.1 0 6-3.9 9.8-6.6 11.1 3.2 1.5 7.4 4.9 7.4 12.1-.2 10-7 15.4-16.6 15.4zm-1.7-44.1h-10.3v12H263c4.4 0 6.9-2.3 6.9-6s-2.5-6-6.9-6zm.6 21.6h-10.9v13h11c4.7 0 7-2.9 7-6.5 0-3.7-2.3-6.5-7.1-6.5zm58.7 22.5-3.2-9.6h-19l-3.2 9.6H286l19.5-53.7h8.2l19.6 53.7h-11zm-12.5-37.7-6.8 19.5h13.3l-6.5-19.5zm52.5 37.7H340v-53.7h21.4c10.5 0 16.6 5.9 16.6 15.1 0 6-3.9 9.8-6.6 11.1 3.2 1.5 7.4 4.9 7.4 12.1-.1 10-7 15.4-16.5 15.4zm-1.8-44.1h-10v12h10c4.4 0 6.9-2.3 6.9-6 .1-3.7-2.4-6-6.9-6zm.7 21.6h-10.7v13h10.7c4.7 0 7-2.9 7-6.5 0-3.7-2.2-6.5-7-6.5zm28.2 22.5v-53.7h10.5v44.2h24.5v9.6h-35zm43.1 0v-53.7H468v9.6h-24.9v12.5h21.1v9.1h-21.1v13H468v9.6h-35.5zM-132 220.5v109.1h109.1V220.5H-132zm97.7 97.7h-86.4v-86.4h86.4v86.4zm-50-65.9h13.6v45.4h-13.6v-45.4zm38.7-2.3c-9.1 0-9.1-13.6 0-13.6s9.1 13.6 0 13.6zm0-4.5c3 0 3-4.5 0-4.5-3.1-.1-3.1 4.5 0 4.5zm0 0"/>
</svg>